<mxfile host="app.diagrams.net" agent="Mozilla/5.0 (X11; Linux x86_64; rv:128.0) Gecko/20100101 Firefox/128.0" version="28.0.7">
  <diagram name="Page-1" id="BpaSAZ1NLm91JnOqQYTQ">
    <mxGraphModel dx="1382" dy="1019" grid="1" gridSize="10" guides="1" tooltips="1" connect="1" arrows="1" fold="1" page="1" pageScale="1" pageWidth="850" pageHeight="1100" math="0" shadow="0">
      <root>
        <mxCell id="0" />
        <mxCell id="1" parent="0" />
        <mxCell id="1jTP84g20C6q-NpgqB53-1" value="Start" style="rounded=1;whiteSpace=wrap;html=1;" vertex="1" parent="1">
          <mxGeometry x="340" y="20" width="120" height="60" as="geometry" />
        </mxCell>
        <mxCell id="1jTP84g20C6q-NpgqB53-37" value="Generate a random word" style="rounded=1;whiteSpace=wrap;html=1;" vertex="1" parent="1">
          <mxGeometry x="340" y="110" width="120" height="60" as="geometry" />
        </mxCell>
        <mxCell id="1jTP84g20C6q-NpgqB53-38" value="" style="endArrow=classic;html=1;rounded=0;exitX=0.5;exitY=1;exitDx=0;exitDy=0;entryX=0.5;entryY=0;entryDx=0;entryDy=0;" edge="1" parent="1" source="1jTP84g20C6q-NpgqB53-1" target="1jTP84g20C6q-NpgqB53-37">
          <mxGeometry width="50" height="50" relative="1" as="geometry">
            <mxPoint x="570" y="230" as="sourcePoint" />
            <mxPoint x="620" y="180" as="targetPoint" />
          </mxGeometry>
        </mxCell>
        <mxCell id="1jTP84g20C6q-NpgqB53-39" value="" style="endArrow=classic;html=1;rounded=0;exitX=0.5;exitY=1;exitDx=0;exitDy=0;" edge="1" parent="1" source="1jTP84g20C6q-NpgqB53-37">
          <mxGeometry width="50" height="50" relative="1" as="geometry">
            <mxPoint x="400" y="510" as="sourcePoint" />
            <mxPoint x="400" y="210" as="targetPoint" />
          </mxGeometry>
        </mxCell>
        <mxCell id="1jTP84g20C6q-NpgqB53-40" value="Generate as many blanks as letters in word" style="rounded=1;whiteSpace=wrap;html=1;" vertex="1" parent="1">
          <mxGeometry x="330" y="210" width="140" height="60" as="geometry" />
        </mxCell>
        <mxCell id="1jTP84g20C6q-NpgqB53-41" value="" style="endArrow=classic;html=1;rounded=0;exitX=0.5;exitY=1;exitDx=0;exitDy=0;" edge="1" parent="1" source="1jTP84g20C6q-NpgqB53-40" target="1jTP84g20C6q-NpgqB53-42">
          <mxGeometry width="50" height="50" relative="1" as="geometry">
            <mxPoint x="400" y="510" as="sourcePoint" />
            <mxPoint x="400" y="310" as="targetPoint" />
          </mxGeometry>
        </mxCell>
        <mxCell id="1jTP84g20C6q-NpgqB53-42" value="Ask the user to guess a&amp;nbsp; letter" style="rounded=1;whiteSpace=wrap;html=1;" vertex="1" parent="1">
          <mxGeometry x="340" y="300" width="120" height="60" as="geometry" />
        </mxCell>
        <mxCell id="1jTP84g20C6q-NpgqB53-43" value="&lt;div&gt;Is the guessed&lt;/div&gt;&lt;div&gt;&amp;nbsp;letter in the word?&lt;/div&gt;" style="rhombus;whiteSpace=wrap;html=1;" vertex="1" parent="1">
          <mxGeometry x="297.5" y="407.64" width="205" height="110" as="geometry" />
        </mxCell>
        <mxCell id="1jTP84g20C6q-NpgqB53-44" value="" style="endArrow=classic;html=1;rounded=0;exitX=0.5;exitY=1;exitDx=0;exitDy=0;entryX=0.5;entryY=0;entryDx=0;entryDy=0;" edge="1" parent="1" source="1jTP84g20C6q-NpgqB53-42" target="1jTP84g20C6q-NpgqB53-43">
          <mxGeometry width="50" height="50" relative="1" as="geometry">
            <mxPoint x="400" y="510" as="sourcePoint" />
            <mxPoint x="450" y="460" as="targetPoint" />
          </mxGeometry>
        </mxCell>
        <mxCell id="1jTP84g20C6q-NpgqB53-45" value="" style="endArrow=classic;html=1;rounded=0;exitX=0;exitY=0.5;exitDx=0;exitDy=0;entryX=0.5;entryY=0;entryDx=0;entryDy=0;" edge="1" parent="1" source="1jTP84g20C6q-NpgqB53-43" target="1jTP84g20C6q-NpgqB53-49">
          <mxGeometry width="50" height="50" relative="1" as="geometry">
            <mxPoint x="290" y="460" as="sourcePoint" />
            <mxPoint x="240" y="550" as="targetPoint" />
            <Array as="points">
              <mxPoint x="240" y="463" />
            </Array>
          </mxGeometry>
        </mxCell>
        <mxCell id="1jTP84g20C6q-NpgqB53-46" value="Yes" style="text;html=1;align=center;verticalAlign=middle;whiteSpace=wrap;rounded=0;" vertex="1" parent="1">
          <mxGeometry x="180" y="480" width="60" height="30" as="geometry" />
        </mxCell>
        <mxCell id="1jTP84g20C6q-NpgqB53-47" value="" style="endArrow=classic;html=1;rounded=0;exitX=1;exitY=0.5;exitDx=0;exitDy=0;entryX=0.5;entryY=0;entryDx=0;entryDy=0;" edge="1" parent="1" source="1jTP84g20C6q-NpgqB53-43" target="1jTP84g20C6q-NpgqB53-50">
          <mxGeometry width="50" height="50" relative="1" as="geometry">
            <mxPoint x="510" y="463" as="sourcePoint" />
            <mxPoint x="562" y="550" as="targetPoint" />
            <Array as="points">
              <mxPoint x="562" y="463" />
            </Array>
          </mxGeometry>
        </mxCell>
        <mxCell id="1jTP84g20C6q-NpgqB53-48" value="No" style="text;html=1;align=center;verticalAlign=middle;whiteSpace=wrap;rounded=0;" vertex="1" parent="1">
          <mxGeometry x="570" y="480" width="60" height="30" as="geometry" />
        </mxCell>
        <mxCell id="1jTP84g20C6q-NpgqB53-49" value="Replace the blank with the letter" style="rounded=1;whiteSpace=wrap;html=1;" vertex="1" parent="1">
          <mxGeometry x="180" y="560" width="120" height="60" as="geometry" />
        </mxCell>
        <mxCell id="1jTP84g20C6q-NpgqB53-50" value="Lose a life" style="rounded=1;whiteSpace=wrap;html=1;" vertex="1" parent="1">
          <mxGeometry x="502.5" y="560" width="120" height="60" as="geometry" />
        </mxCell>
        <mxCell id="1jTP84g20C6q-NpgqB53-51" value="&lt;div&gt;Are all the&lt;/div&gt;&lt;div&gt;&amp;nbsp;blanks filled?&lt;/div&gt;" style="rhombus;whiteSpace=wrap;html=1;" vertex="1" parent="1">
          <mxGeometry x="170" y="680" width="140" height="100" as="geometry" />
        </mxCell>
        <mxCell id="1jTP84g20C6q-NpgqB53-52" value="" style="endArrow=classic;html=1;rounded=0;exitX=0.5;exitY=1;exitDx=0;exitDy=0;entryX=0.5;entryY=0;entryDx=0;entryDy=0;" edge="1" parent="1" source="1jTP84g20C6q-NpgqB53-49" target="1jTP84g20C6q-NpgqB53-51">
          <mxGeometry width="50" height="50" relative="1" as="geometry">
            <mxPoint x="400" y="780" as="sourcePoint" />
            <mxPoint x="450" y="730" as="targetPoint" />
          </mxGeometry>
        </mxCell>
        <mxCell id="1jTP84g20C6q-NpgqB53-53" value="&lt;div&gt;Have they run&lt;/div&gt;&lt;div&gt;out of lives?&lt;br&gt;&lt;/div&gt;" style="rhombus;whiteSpace=wrap;html=1;" vertex="1" parent="1">
          <mxGeometry x="490" y="680" width="140" height="100" as="geometry" />
        </mxCell>
        <mxCell id="1jTP84g20C6q-NpgqB53-54" value="" style="endArrow=classic;html=1;rounded=0;exitX=0.5;exitY=1;exitDx=0;exitDy=0;" edge="1" parent="1" source="1jTP84g20C6q-NpgqB53-50" target="1jTP84g20C6q-NpgqB53-53">
          <mxGeometry width="50" height="50" relative="1" as="geometry">
            <mxPoint x="400" y="780" as="sourcePoint" />
            <mxPoint x="450" y="730" as="targetPoint" />
          </mxGeometry>
        </mxCell>
        <mxCell id="1jTP84g20C6q-NpgqB53-55" value="" style="endArrow=classic;html=1;rounded=0;exitX=0;exitY=0.5;exitDx=0;exitDy=0;entryX=0;entryY=0.5;entryDx=0;entryDy=0;" edge="1" parent="1" source="1jTP84g20C6q-NpgqB53-51" target="1jTP84g20C6q-NpgqB53-42">
          <mxGeometry width="50" height="50" relative="1" as="geometry">
            <mxPoint x="400" y="780" as="sourcePoint" />
            <mxPoint x="230" y="350" as="targetPoint" />
            <Array as="points">
              <mxPoint x="120" y="730" />
              <mxPoint x="120" y="330" />
            </Array>
          </mxGeometry>
        </mxCell>
        <mxCell id="1jTP84g20C6q-NpgqB53-56" value="No" style="text;html=1;align=center;verticalAlign=middle;whiteSpace=wrap;rounded=0;" vertex="1" parent="1">
          <mxGeometry x="110" y="740" width="60" height="30" as="geometry" />
        </mxCell>
        <mxCell id="1jTP84g20C6q-NpgqB53-58" value="" style="endArrow=classic;html=1;rounded=0;exitX=1;exitY=0.5;exitDx=0;exitDy=0;entryX=1;entryY=0.5;entryDx=0;entryDy=0;" edge="1" parent="1" source="1jTP84g20C6q-NpgqB53-53" target="1jTP84g20C6q-NpgqB53-42">
          <mxGeometry width="50" height="50" relative="1" as="geometry">
            <mxPoint x="730" y="730" as="sourcePoint" />
            <mxPoint x="900" y="330" as="targetPoint" />
            <Array as="points">
              <mxPoint x="680" y="730" />
              <mxPoint x="680" y="330" />
            </Array>
          </mxGeometry>
        </mxCell>
        <mxCell id="1jTP84g20C6q-NpgqB53-59" value="Yes" style="text;html=1;align=center;verticalAlign=middle;whiteSpace=wrap;rounded=0;" vertex="1" parent="1">
          <mxGeometry x="490" y="790" width="60" height="30" as="geometry" />
        </mxCell>
        <mxCell id="1jTP84g20C6q-NpgqB53-60" value="" style="endArrow=none;html=1;rounded=0;exitX=0.5;exitY=1;exitDx=0;exitDy=0;entryX=0.5;entryY=1;entryDx=0;entryDy=0;" edge="1" parent="1" source="1jTP84g20C6q-NpgqB53-51" target="1jTP84g20C6q-NpgqB53-53">
          <mxGeometry width="50" height="50" relative="1" as="geometry">
            <mxPoint x="400" y="780" as="sourcePoint" />
            <mxPoint x="560" y="840" as="targetPoint" />
            <Array as="points">
              <mxPoint x="240" y="840" />
              <mxPoint x="390" y="840" />
              <mxPoint x="560" y="840" />
            </Array>
          </mxGeometry>
        </mxCell>
        <mxCell id="1jTP84g20C6q-NpgqB53-61" value="" style="endArrow=classic;html=1;rounded=0;" edge="1" parent="1">
          <mxGeometry width="50" height="50" relative="1" as="geometry">
            <mxPoint x="400" y="840" as="sourcePoint" />
            <mxPoint x="400" y="920" as="targetPoint" />
          </mxGeometry>
        </mxCell>
        <mxCell id="1jTP84g20C6q-NpgqB53-62" value="Game Over" style="rounded=1;whiteSpace=wrap;html=1;" vertex="1" parent="1">
          <mxGeometry x="340" y="920" width="120" height="60" as="geometry" />
        </mxCell>
        <mxCell id="1jTP84g20C6q-NpgqB53-63" value="Yes" style="text;html=1;align=center;verticalAlign=middle;whiteSpace=wrap;rounded=0;" vertex="1" parent="1">
          <mxGeometry x="240" y="790" width="60" height="30" as="geometry" />
        </mxCell>
        <mxCell id="1jTP84g20C6q-NpgqB53-64" value="No" style="text;html=1;align=center;verticalAlign=middle;whiteSpace=wrap;rounded=0;" vertex="1" parent="1">
          <mxGeometry x="630" y="740" width="60" height="30" as="geometry" />
        </mxCell>
      </root>
    </mxGraphModel>
  </diagram>
</mxfile>
